<svg width="512" height="512" viewBox="0 0 512 512" fill="none" xmlns="http://www.w3.org/2000/svg">
  <defs>
    <linearGradient id="g" x1="96" y1="80" x2="416" y2="432" gradientUnits="userSpaceOnUse">
      <stop stop-color="#FFFFFF" stop-opacity="0.95"/>
      <stop offset="1" stop-color="#FFFFFF" stop-opacity="0.35"/>
    </linearGradient>
    <filter id="s" x="-20%" y="-20%" width="140%" height="140%">
      <feDropShadow dx="0" dy="10" stdDeviation="18" flood-color="#000000" flood-opacity="0.35"/>
    </filter>
  </defs>

  <!-- rounded tile -->
  <rect x="72" y="72" width="368" height="368" rx="96" fill="rgba(255,255,255,0.06)" stroke="rgba(255,255,255,0.10)" filter="url(#s)"/>

  <!-- stylized "B" / orderbook columns -->
  <path d="M196 164h94c44 0 74 24 74 58c0 21-11 38-30 47c23 9 36 28 36 52c0 39-33 67-82 67H196V164zm86 94c18 0 30-10 30-24c0-14-12-24-30-24h-34v48h34zm8 104c22 0 36-12 36-28c0-17-14-28-36-28h-42v56h42z" fill="url(#g)"/>

  <!-- tiny candle hint -->
  <path d="M142 320c0-10 8-18 18-18h6v-28h12v28h6c10 0 18 8 18 18v46c0 10-8 18-18 18h-6v28h-12v-28h-6c-10 0-18-8-18-18v-46z" fill="rgba(255,255,255,0.22)"/>

  <!-- notch glow -->
  <circle cx="390" cy="150" r="10" fill="rgba(255,255,255,0.35)"/>
</svg>
